<?xml version="1.0" standalone="no"?>
<!DOCTYPE svg PUBLIC "-//W3C//DTD SVG 1.1//EN"
  "http://www.w3.org/Graphics/SVG/1.1/DTD/svg11.dtd">
<svg version="1.1" xmlns="http://www.w3.org/2000/svg" xmlns:xlink="http://www.w3.org/1999/xlink" width="3840" height="2160" viewBox="-1040.888888888889 -32 1889.7777777777778 1063" id="ccdiagram"><filter id="grayscale"><feColorMatrix type="matrix" values="0.3333 0.3333 0.3333 0 0 0.3333 0.3333 0.3333 0 0 0.3333 0.3333 0.3333 0 0 0 0 0 1 0"></feColorMatrix></filter><defs><style type="text/css">@import url('https://fonts.googleapis.com/css?family=Open+Sans:400,700|Inconsolata:400');</style></defs><g>0<g pointer-events="auto"></g>0<g pointer-events="auto"></g><g></g><g pointer-events="auto"></g><g></g><g pointer-events="auto"></g><g pointer-events="none"></g><g pointer-events="auto"><g><g cursor="cell"><line x1="128" y1="426" x2="-338" y2="443" stroke="red" stroke-width="8" opacity="0"></line><line x1="128" y1="426" x2="-338" y2="443" stroke="#000000" stroke-width="2" stroke-linecap="round"></line><polygon points="-352 444, -327 450, -334 443, -328 436, -352 444" stroke-linejoin="round" fill="#000000" stroke="#000000" stroke-width="1"></polygon></g></g><g><g cursor="cell"><line x1="-352" y1="444" x2="-201" y2="549" stroke="red" stroke-width="8" opacity="0"></line><line x1="-352" y1="444" x2="-201" y2="549" stroke="#000000" stroke-width="2" stroke-linecap="round"></line><polygon points="-192 555, -199 540, -203 547, -217 548, -192 555" stroke-linejoin="round" fill="#000000" stroke="#000000" stroke-width="1"></polygon></g></g><g><g cursor="cell"><line x1="0" y1="352" x2="-340" y2="441" stroke="red" stroke-width="8" opacity="0"></line><line x1="0" y1="352" x2="-340" y2="441" stroke="#000000" stroke-width="2" stroke-linecap="round"></line><polygon points="-352 444, -325 444, -336 440, -334 432, -352 444" stroke-linejoin="round" fill="#000000" stroke="#000000" stroke-width="1"></polygon></g></g><g><g cursor="cell"><line x1="480" y1="333" x2="187" y2="217" stroke="red" stroke-width="8" opacity="0"></line><line x1="480" y1="333" x2="187" y2="217" stroke="#000000" stroke-width="2" stroke-linecap="round"></line><polygon points="176 213, 190 226, 191 219, 203 215, 176 213" stroke-linejoin="round" fill="#000000" stroke="#000000" stroke-width="1"></polygon></g></g><g><g cursor="cell"><line x1="-416" y1="574" x2="-205" y2="556" stroke="red" stroke-width="8" opacity="0"></line><line x1="-416" y1="574" x2="-205" y2="556" stroke="#000000" stroke-width="2" stroke-linecap="round"></line><polygon points="-192 555, -218 550, -209 556, -215 564, -192 555" stroke-linejoin="round" fill="#000000" stroke="#000000" stroke-width="1"></polygon></g></g><g><g cursor="cell"><line x1="16" y1="46" x2="169" y2="206" stroke="red" stroke-width="8" opacity="0"></line><line x1="16" y1="46" x2="169" y2="206" stroke="#000000" stroke-width="2" stroke-linecap="round"></line><polygon points="176 213, 174 197, 167 204, 154 204, 176 213" stroke-linejoin="round" fill="#000000" stroke="#000000" stroke-width="1"></polygon></g></g><g><g cursor="cell"><line x1="-544" y1="648" x2="-426" y2="579" stroke="red" stroke-width="8" opacity="0"></line><line x1="-544" y1="648" x2="-426" y2="579" stroke="#000000" stroke-width="2" stroke-linecap="round"></line><polygon points="-416 574, -442 579, -428 581, -425 588, -416 574" stroke-linejoin="round" fill="#000000" stroke="#000000" stroke-width="1"></polygon></g></g><g><g cursor="cell"><line x1="-128" y1="278" x2="-344" y2="438" stroke="red" stroke-width="8" opacity="0"></line><line x1="-128" y1="278" x2="-344" y2="438" stroke="#000000" stroke-width="2" stroke-linecap="round"></line><polygon points="-352 444, -328 437, -341 436, -346 429, -352 444" stroke-linejoin="round" fill="#000000" stroke="#000000" stroke-width="1"></polygon></g></g><g><g cursor="cell"><line x1="-416" y1="574" x2="-356" y2="452" stroke="red" stroke-width="8" opacity="0"></line><line x1="-416" y1="574" x2="-356" y2="452" stroke="#000000" stroke-width="2" stroke-linecap="round"></line><polygon points="-352 444, -370 456, -357 454, -348 460, -352 444" stroke-linejoin="round" fill="#000000" stroke="#000000" stroke-width="1"></polygon></g></g></g><g pointer-events="auto"><g opacity="1"><g id="23bee66e-6047-438c-a2f6-bb65f97cf834" transform="translate(0 0)"><svg x="-160" y="185" height="111" width="128" fill-rule="evenodd"><path d="M64 74v37l64-37V37L64 74z" fill="#b8b8bb"></path><path d="M0 37v37l64 37V74L0 37z" fill="#d2d2d4"></path><path d="M0 37L64 0l64 37-64 37L0 37z" fill="#ececed"></path><path d="M64 73.407l62.111-35.86.514.889-62.487 36.078h-.276L.743 38.072l.514-.89L64 73.407z" fill="#83838a"></path><path d="M63.486 74h1.027v36h-1.027z" fill="#83838a"></path><path d="M128 37v37l-64 37L0 74V37L64 0l64 37zM2.054 38.185v34.63L64 108.627l61.946-35.812v-34.63L64 2.373 2.054 38.185z" fill="#000000"></path></svg><svg x="-105" y="203" width="60" height="35" style="overflow: visible; cursor: default;"><rect transform="matrix(0.707 0.409 -0.707 0.409 0 0)" width="60" height="35" rx="5" ry="5" fill="#4286c5"></rect><text transform="matrix(0.707 0.409 -0.707 0.409 0 0)" font-family="Open Sans" font-size="20pt" text-anchor="middle" x="50%" y="75%" fill="#ffffff"><tspan>T2</tspan></text></svg></g></g><g opacity="1"><g id="ebe2b891-25b5-4028-a1f0-3ef9df637868" transform="translate(0 0)"><svg x="-32" y="259" height="111" width="128" fill-rule="evenodd"><path d="M64 74v37l64-37V37L64 74z" fill="#b8b8bb"></path><path d="M0 37v37l64 37V74L0 37z" fill="#d2d2d4"></path><path d="M0 37L64 0l64 37-64 37L0 37z" fill="#ececed"></path><path d="M64 73.407l62.111-35.86.514.889-62.487 36.078h-.276L.743 38.072l.514-.89L64 73.407z" fill="#83838a"></path><path d="M63.486 74h1.027v36h-1.027z" fill="#83838a"></path><path d="M128 37v37l-64 37L0 74V37L64 0l64 37zM2.054 38.185v34.63L64 108.627l61.946-35.812v-34.63L64 2.373 2.054 38.185z" fill="#000000"></path></svg><svg x="23" y="277" width="60" height="35" style="overflow: visible; cursor: default;"><rect transform="matrix(0.707 0.409 -0.707 0.409 0 0)" width="60" height="35" rx="5" ry="5" fill="#4286c5"></rect><text transform="matrix(0.707 0.409 -0.707 0.409 0 0)" font-family="Open Sans" font-size="20pt" text-anchor="middle" x="50%" y="75%" fill="#ffffff"><tspan>T2</tspan></text></svg></g></g><g opacity="1"><g id="43e62789-8ceb-4d10-8bc6-9bd62a89e4b4" transform="translate(0 0)"><svg x="96" y="333" height="111" width="128" fill-rule="evenodd"><path d="M64 74v37l64-37V37L64 74z" fill="#b8b8bb"></path><path d="M0 37v37l64 37V74L0 37z" fill="#d2d2d4"></path><path d="M0 37L64 0l64 37-64 37L0 37z" fill="#ececed"></path><path d="M64 73.407l62.111-35.86.514.889-62.487 36.078h-.276L.743 38.072l.514-.89L64 73.407z" fill="#83838a"></path><path d="M63.486 74h1.027v36h-1.027z" fill="#83838a"></path><path d="M128 37v37l-64 37L0 74V37L64 0l64 37zM2.054 38.185v34.63L64 108.627l61.946-35.812v-34.63L64 2.373 2.054 38.185z" fill="#000000"></path></svg><svg x="151" y="351" width="60" height="35" style="overflow: visible; cursor: default;"><rect transform="matrix(0.707 0.409 -0.707 0.409 0 0)" width="60" height="35" rx="5" ry="5" fill="#4286c5"></rect><text transform="matrix(0.707 0.409 -0.707 0.409 0 0)" font-family="Open Sans" font-size="20pt" text-anchor="middle" x="50%" y="75%" fill="#ffffff"><tspan>T2</tspan></text></svg></g></g></g><g pointer-events="auto"><g opacity="1"><g id="89420fc2-f1e5-4ae2-b588-76cebf937bee" transform="translate(0 0)"><svg x="-256" y="222" overflow="visible"><g transform="scale(0.20000000000000015) "><svg x="-450" y="-210" overflow="visible"><image xlink:href="https://images.cloudcraft.co/0e2f1edf-0b12-42e1-9996-b34b2bee04be/kisspng-terraform-hashicorp-microsoft-azure-infrastructure-5b0e0b6cc80963.2449977615276470848194.jpg" width="900" height="420"></image></svg></g></svg></g></g><g opacity="1"><g id="2daba256-1b88-4da2-8734-2fd8421601b7" transform="translate(0 0)"><svg x="-352" y="444" overflow="visible"><g transform="scale(0.5000000000000001) "><svg x="-112.5" y="-112.5" overflow="visible"><image xlink:href="https://images.cloudcraft.co/0e2f1edf-0b12-42e1-9996-b34b2bee04be/angularjs.jpg" width="225" height="225"></image></svg></g></svg></g></g><g opacity="1"><g id="371d504e-9a43-48ee-84bd-2395588c9235" transform="translate(0 0)"><svg x="-192" y="555" overflow="visible"><g transform="scale(0.30000000000000016) "><svg x="-257" y="-256" overflow="visible"><image xlink:href="https://images.cloudcraft.co/0e2f1edf-0b12-42e1-9996-b34b2bee04be/python.png" width="514" height="512"></image></svg></g></svg></g></g><g opacity="1"><g id="7a0c2d91-31b2-44a5-93bb-bf2776920554" transform="translate(0 0)"><svg x="-416" y="574" overflow="visible"><g transform="scale(0.20000000000000015) "><svg x="-256" y="-256" overflow="visible"><image xlink:href="https://images.cloudcraft.co/0e2f1edf-0b12-42e1-9996-b34b2bee04be/5847f981cef1014c0b5e48be.png" width="512" height="512"></image></svg></g></svg></g></g><g opacity="1"><g id="c3122ba2-8d12-4104-aa48-25d205e6e19e" transform="translate(0 0)"><svg x="-544" y="648" overflow="visible"><g transform="scale(0.30000000000000016) "><svg x="-262" y="-256" overflow="visible"><image xlink:href="https://images.cloudcraft.co/0e2f1edf-0b12-42e1-9996-b34b2bee04be/5847f98fcef1014c0b5e48c0.png" width="524" height="512"></image></svg></g></svg></g></g></g><g pointer-events="auto"><g opacity="1"><g id="578b5e75-2907-424a-ae4c-1d40ef86f43c" transform="translate(0 0)"><svg x="16" y="46" overflow="visible"><g transform="scale(1.5625) "><circle cx="0" cy="0" fill="#000000" r="23"></circle><svg width="21" height="32" x="-10.5" y="-16" style="fill: rgb(255, 255, 255);"><svg xmlns="http://www.w3.org/2000/svg" width="21" height="32" viewBox="0 0 21 32"><path d="M11.429 25.143c0-.625-.518-1.143-1.143-1.143s-1.143.518-1.143 1.143.518 1.143 1.143 1.143 1.143-.518 1.143-1.143zm6.857-2.857V5.143a.587.587 0 0 0-.571-.571H2.858a.587.587 0 0 0-.571.571v17.143c0 .304.268.571.571.571h14.857a.587.587 0 0 0 .571-.571zm2.285-17.143v19.429a2.866 2.866 0 0 1-2.857 2.857H2.857A2.866 2.866 0 0 1 0 24.572V5.143a2.866 2.866 0 0 1 2.857-2.857h14.857a2.866 2.866 0 0 1 2.857 2.857z"></path></svg></svg></g></svg></g></g><g opacity="1"><g id="1076a00e-399f-4d60-b4cf-ec9102c5510c" transform="translate(0 0)"><svg x="480" y="333" overflow="visible"><g transform="scale(1.5625) "><circle cx="0" cy="0" fill="#000000" r="24"></circle><svg width="34" height="32" x="-17" y="-16" style="fill: rgb(255, 255, 255);"><svg xmlns="http://www.w3.org/2000/svg" width="34" height="32" viewBox="0 0 34 32"><path d="M32 17.714V2.857a.587.587 0 0 0-.571-.571H2.858a.587.587 0 0 0-.571.571v14.857c0 .304.268.571.571.571h28.571a.587.587 0 0 0 .571-.571zm2.286-14.857v19.429a2.866 2.866 0 0 1-2.857 2.857h-9.714c0 1.518 1.143 2.804 1.143 3.429s-.518 1.143-1.143 1.143h-9.143a1.151 1.151 0 0 1-1.143-1.143c0-.661 1.143-1.875 1.143-3.429H2.858a2.866 2.866 0 0 1-2.857-2.857V2.857A2.866 2.866 0 0 1 2.858 0h28.571a2.866 2.866 0 0 1 2.857 2.857z"></path></svg></svg></g></svg></g></g><g opacity="1"><g id="c01199c3-6fdf-4876-ba7b-ab2109bbbe22" transform="translate(0 0)"><svg x="176" y="213" overflow="visible"><g transform="scale(2.44140625) "><circle cx="0" cy="0" fill="#000000" r="24"></circle><svg width="34" height="32" x="-17" y="-16" style="fill: rgb(255, 255, 255);"><svg xmlns="http://www.w3.org/2000/svg" width="34" height="32" viewBox="0 0 34 32"><path d="M34.286 20.571a6.858 6.858 0 0 1-6.857 6.857H8c-4.411 0-8-3.589-8-8a7.993 7.993 0 0 1 4.607-7.232c-.018-.25-.036-.518-.036-.768a9.137 9.137 0 0 1 9.143-9.143c3.821 0 7.089 2.339 8.464 5.679a4.439 4.439 0 0 1 2.964-1.107 4.58 4.58 0 0 1 4.571 4.571 4.49 4.49 0 0 1-.732 2.464c3.036.714 5.304 3.429 5.304 6.679z"></path></svg></svg></g></svg></g></g></g><g pointer-events="auto"><g opacity="1"><g id="ba9190d2-7fe8-4da3-befe-bbbc5ea8e967" transform="translate(0 0)"><svg x="96" y="518" overflow="visible"><text stroke="#ffffff" stroke-width="4" font-family="Open Sans" y="36.5" font-size="25pt" fill="#03a9f4" font-weight="bold" transform="matrix(0.707 -0.409 0.707 0.409 0 0)" xml:space="preserve"><tspan x="8" dy="0">MDAS  Diagram</tspan></text><text font-family="Open Sans" y="36.5" font-size="25pt" fill="#03a9f4" font-weight="bold" transform="matrix(0.707 -0.409 0.707 0.409 0 0)" xml:space="preserve"><tspan x="8" dy="0">MDAS  Diagram</tspan></text></svg></g></g><g opacity="1"><g id="cbb2700f-dee8-4a85-a056-84adf4fa513e" transform="translate(0 0)"><svg x="-48" y="342" overflow="visible"><text stroke="#ffffff" stroke-width="4" font-family="Open Sans" y="30.799999999999997" font-size="20pt" fill="#03a9f4" font-weight="bold" transform="" xml:space="preserve"><tspan x="8" dy="0">CI</tspan></text><text font-family="Open Sans" y="30.799999999999997" font-size="20pt" fill="#03a9f4" font-weight="bold" transform="" xml:space="preserve"><tspan x="8" dy="0">CI</tspan></text></svg></g></g><g opacity="1"><g id="134135b4-ccb8-41b7-b5fb-b9827c0de92d" transform="translate(0 0)"><svg x="80" y="416" overflow="visible"><text stroke="#ffffff" stroke-width="4" font-family="Open Sans" y="30.799999999999997" font-size="20pt" fill="#03a9f4" font-weight="bold" transform="" xml:space="preserve"><tspan x="8" dy="0">Test</tspan></text><text font-family="Open Sans" y="30.799999999999997" font-size="20pt" fill="#03a9f4" font-weight="bold" transform="" xml:space="preserve"><tspan x="8" dy="0">Test</tspan></text></svg></g></g><g opacity="1"><g id="eff9f5f6-dd2b-485a-a284-d3a081e1121f" transform="translate(0 0)"><svg x="-176" y="268" overflow="visible"><text stroke="#ffffff" stroke-width="4" font-family="Open Sans" y="30.799999999999997" font-size="20pt" fill="#03a9f4" font-weight="bold" transform="" xml:space="preserve"><tspan x="8" dy="0">Dev</tspan></text><text font-family="Open Sans" y="30.799999999999997" font-size="20pt" fill="#03a9f4" font-weight="bold" transform="" xml:space="preserve"><tspan x="8" dy="0">Dev</tspan></text></svg></g></g><g opacity="1"><g id="0329ef17-aa2d-4f6e-b07b-fbf60138c8ba" transform="translate(0 0)"><svg x="-320" y="370" overflow="visible"><text stroke="#ffffff" stroke-width="4" font-family="Open Sans" y="36.5" font-size="25pt" fill="#03a9f4" font-weight="bold" transform="matrix(0.707 0.409 -0.707 0.409 0 0)" xml:space="preserve"><tspan x="8" dy="0">FrontEnd</tspan></text><text font-family="Open Sans" y="36.5" font-size="25pt" fill="#03a9f4" font-weight="bold" transform="matrix(0.707 0.409 -0.707 0.409 0 0)" xml:space="preserve"><tspan x="8" dy="0">FrontEnd</tspan></text></svg></g></g><g opacity="1"><g id="2ffcefbe-c834-496a-b710-31420a24b461" transform="translate(0 0)"><svg x="-128" y="481" overflow="visible"><text stroke="#ffffff" stroke-width="4" font-family="Open Sans" y="36.5" font-size="25pt" fill="#03a9f4" font-weight="bold" transform="matrix(0.707 0.409 -0.707 0.409 0 0)" xml:space="preserve"><tspan x="8" dy="0">Backend</tspan></text><text font-family="Open Sans" y="36.5" font-size="25pt" fill="#03a9f4" font-weight="bold" transform="matrix(0.707 0.409 -0.707 0.409 0 0)" xml:space="preserve"><tspan x="8" dy="0">Backend</tspan></text></svg></g></g></g><g></g></g></svg>