<svg id="Layer_1" data-name="Layer 1" xmlns="http://www.w3.org/2000/svg" viewBox="0 0 1024 1024"><defs><style>.cls-1{fill:#231f20;}</style></defs><title>Industry Icons</title><path class="cls-1" d="M484.58,149c-195.43,0-355.21,159.62-355.3,354.87-.1,196.58,159.26,356.32,355.49,356.34,195.94,0,355.67-159.52,355.72-355.28C840.53,308.56,680.94,149,484.58,149Zm-1.26,666.34C311.89,815.28,174,675.66,174.15,502.22,174.26,332.55,314,193.88,484.78,193.88c172.32,0,310.87,138.82,310.84,311.46C795.58,677.2,656.34,815.42,483.32,815.35Z"/><path class="cls-1" d="M485.75,671.26H309.94c-12.19,0-12.3,0-11.09-12.19,3.49-35.12,7-70.24,10.63-105.34,4.08-38.92,8.41-77.81,12.53-116.72,2.38-22.47,4.56-45,6.85-67.43.82-8.14,2-9.22,9.95-9.24,13.36,0,26.72.2,40.07-.09,5.81-.13,8.23,2.46,8.76,7.83,2.64,26.55,5.24,53.1,8,79.63,2.75,26.1,5.8,52.16,8.56,78.26,2.7,25.45,5.22,50.92,7.8,76.38,1.73,17.13,3.59,34.24,5.05,51.39.48,5.64,3.13,7.15,8.35,7.14q114.41-.14,228.8,0c6.12,0,8.19-2.06,8.17-8.29q-.31-74,0-148c0-6.44-2.12-7.87-8.14-7.86q-118,.25-235.92.1c-2.57,0-5.57.5-7.6-.62s-4-3.94-4.08-6.09c-.05-1.45,3-3.4,5.06-4.43,1.38-.7,3.38-.22,5.1-.22h245c10.9,0,11.67.77,11.67,11.81q0,81.76,0,163.53c0,10.26-.25,10.43-10.62,10.43ZM358.17,660.82c13.35,0,26.7.06,40.05,0,8,0,8.46-.73,7.64-8.61q-3.64-35-7.19-70c-2.39-23.32-4.71-46.64-7.17-70-2.78-26.29-5.73-52.55-8.5-78.84q-2.89-27.58-5.48-55.21c-.48-5.14-2.87-7-7.95-6.81-7.31.3-14.66.38-22,0-5.78-.32-7.94,1.88-8.47,7.59-2.18,23.11-4.72,46.19-7.17,69.27q-6.36,60-12.76,120c-3,28.21-5.84,56.43-8.84,84.64-.73,6.82-.08,7.86,7.11,7.91C331,660.89,344.61,660.81,358.17,660.82Z"/><path class="cls-1" d="M387.63,305.32c8.88-5.56,19.44-7.42,30-9.38,8.57-1.6,17.27-3,24.82-7.62A130.86,130.86,0,0,0,456.14,278c1.7-1.39,3.09-3.27,5.4-1.65s1.1,3.56.2,5.36c-7.51,15.08-17.45,27.89-33,35.48-9.42,4.59-19.57,6.56-29.77,8.33-11.64,2-23.06,4.57-33,11.45-.93.64-3.32.53-4-.2a4.34,4.34,0,0,1-.27-4.08C368.16,321.82,375.9,312,387.63,305.32Zm57.83-9.64-.53-.93-2.87.77c-8.94,2.37-17.8,5.14-26.84,7-11.86,2.46-23.37,5.41-32.61,13.83-2.47,2.25-5.5,4.18-6.38,7.67,9.85-2,19.34-4,28.86-5.92,9.28-1.84,18.32-4.34,26.34-9.53C436.83,305.09,441.77,301,445.46,295.68Z"/><path class="cls-1" d="M550,559.11c0-9.47.14-18.94-.05-28.41-.11-5.15,1.83-7.48,7.16-7.44q29.38.19,58.76,0c5.21,0,7.59,2.15,7.58,7.24,0,19.58,0,39.17,0,58.76,0,5.21-2.74,7.45-7.59,7.46q-29.39,0-58.76,0c-5.16,0-7.18-2.91-7.13-7.86C550,578.91,550,569,550,559.11Zm11,.45c0,6.67.19,13.35-.07,20-.17,4.57,1.75,6,6.1,6,12.91-.16,25.82-.13,38.73,0,4.23,0,6.33-1.28,6.27-5.92-.19-13.34-.15-26.68,0-40,0-3.82-1.35-5.47-5.27-5.43-13.56.11-27.12.14-40.67,0-4.06,0-5.22,1.66-5.12,5.41C561.07,546.22,560.94,552.89,560.94,559.56Z"/><path class="cls-1" d="M486.48,523.31c9.89,0,19.78.08,29.67,0,5.17-.06,7.42,2.34,7.41,7.43q-.09,29,0,58c0,5.42-2.56,8-7.8,8q-29.34,0-58.68,0c-5.18,0-7.14-2.68-7.11-7.72q.16-29.36,0-58.69c0-5.42,2.42-7.14,7.51-7C467.13,523.46,476.8,523.31,486.48,523.31Zm-25.84,36.44c0,6.67.07,13.35,0,20-.06,4.06,1.65,5.8,5.8,5.76q19.69-.19,39.39,0c4.43.05,6.2-1.77,6.16-6.13-.1-13.13-.13-26.26,0-39.39,0-4.55-1.93-5.94-6.27-5.88q-19.68.27-39.38,0c-4.18-.06-5.85,1.45-5.74,5.61C460.76,546.41,460.63,553.08,460.64,559.75Z"/></svg>