<svg id="Layer_1" data-name="Layer 1" xmlns="http://www.w3.org/2000/svg" viewBox="0 0 1024 1024"><defs><style>.cls-1{fill:#fff;stroke:#939598;stroke-miterlimit:10;stroke-width:0.25px;}</style></defs><title>Industry Icons</title><path class="cls-1" d="M500,143.45c-195.43,0-355.21,159.62-355.3,354.87-.1,196.58,159.26,356.32,355.49,356.34,195.94,0,355.67-159.52,355.72-355.29C855.9,303,696.31,143.41,500,143.45Zm-1.26,666.34c-171.43-.07-309.29-139.7-309.17-313.13C189.63,327,329.33,188.32,500.15,188.32,672.47,188.31,811,327.14,811,499.78,811,671.64,671.71,809.86,498.69,809.79Z"/><path class="cls-1" d="M404.07,476.62c-2.59-2.64-4.88-5.26-9.3-3.77-7.4,2.49-15.12,1.69-22.72,1.42-49.17-1.76-84.42-56.5-65.74-102,3.71-9,7.44-9.93,14.43-3.08,10.43,10.22,20.67,20.63,31,31,9.08,9.08,18.7,10.21,29.13,2.29,5.78-4.4,5.85-12.25,8.14-18.64,1.79-5-3.47-6.54-6.08-9.05-11-10.59-22.29-20.87-33.37-31.36-6.66-6.31-6-10.07,2.34-13.81,18.71-8.34,37.88-7.16,55.92.66,33.38,14.46,50.27,46.95,45.16,83.35-.63,4.5-1.58,8.67,2.8,12.69,10.25,9.41,20.09,19.32,29.62,29.48,3.94,4.21,6,2.79,9.28-.49,20.32-20.51,40.67-41,61.3-61.18,4.08-4,2.92-6.17-.72-9-23.31-18-48.22-27.49-77.42-14.82-3,1.31-6.57,2.88-8.88-.71-1.91-3-1.24-6.4.93-9.31,1.58-2.13,3.08-4.33,4.81-6.32,21.48-24.63,48.3-39.61,81.13-40.36,25.08-.57,49.27,3.35,67.4,24.54,11.61,13.57,25.12,25.53,37.82,38.17s24.85,25.88,43.91,28.89c2.83.45,5.5,2.22,8.13,3.6,10.25,5.34,12.75,9.92,8.92,20.86-10.84,30.9-32.67,51.74-62.5,63.9-12.68,5.17-18.5,1.63-24.24-11.25a90,90,0,0,1-5.65-15.81c-2.31-9.91-8.55-16.93-15.55-23.67-2.64-2.53-4.34-3.17-7.25-.23-22,22.23-44.23,44.32-67.31,67.38,4.49,4,8.41,7.09,11.91,10.61q50.15,50.52,100.12,101.2c15.25,15.53,14.81,37.57-.53,52.12-14.88,14.12-36.4,13.17-52.4-2.76-36.45-36.29-72.72-72.75-110.81-110.88-2.09,3-3.63,6.09-6,8.42-33.72,33.85-67.61,67.54-101.3,101.42-11.31,11.38-24.36,15.67-39.79,10.74-27.22-8.71-33.74-41.1-12.94-62.49,35.85-36.86,71.52-73.9,107-110.57C425.88,498.76,415,487.72,404.07,476.62ZM342.16,671c9.11,4.21,17.45,2.09,24.89-4.21,2.27-1.93,4.3-4.14,6.41-6.25Q484.28,549.71,595.23,439c5.71-5.67,6.7-8.75.12-14.24a177.17,177.17,0,0,1-21.09-21.08c-5.2-6.1-8.33-5.4-13.73,0q-101.37,102-203.18,203.51c-7.5,7.51-15.05,15-22.49,22.54-5.05,5.13-8.33,11.1-7.82,18.67C327.49,659,332.66,666.6,342.16,671Zm306.78-13.71c4.75-9.62,2.59-18.91-4.92-26.42C608.1,595,572,559.34,536.13,523.42c-3.68-3.68-5.51-2.83-8.6.38-8.49,8.86-17.17,17.56-26.08,26-3.54,3.34-3.35,5.26.06,8.65q54,53.64,107.75,107.58c4.44,4.45,9.86,6.51,16.61,7.18C635.78,671.77,644.25,666.79,648.94,657.28ZM397.3,373.73c4.75,4.58,6.61,8.69,3.29,14.57a7.91,7.91,0,0,0-1.18,2.71c-2.77,21.32-18.21,28.35-36.33,32.87-5.27,1.31-8.12-1.05-11.19-4.19L317,384.15c-9.66,17.35-1.46,46.89,18.14,63.37,23.72,20,53.29,23.67,80.83,3.33,24.21-17.88,32.49-48.49,20.43-76.05-10.11-23.08-40.1-46.93-74.06-36.85C374.3,350.31,385.48,362.35,397.3,373.73ZM663.87,481.57c19.44-10.95,35.12-25.78,45.34-45.8,6.48-12.66,5.65-14.36-7.48-19.27-4.62-1.73-9.43-3-14-4.74-3.67-1.42-7.13-3.37-10.74-5-4.93-2.16-7-10.64-12.83-8.57-4.79,1.7-8.16,7.44-12.14,11.41-8,7.94-16,15.83-23.84,23.87-1.54,1.57-5.27,3.36-1.8,6.07,12.44,9.72,14,24.87,19.7,38,1.52,3.54,2.14,9,11.17,6.53A32.34,32.34,0,0,0,663.87,481.57Zm-52.69-57c3.43,3.5,5.45,4.37,9.3.3,10.48-11.07,21.32-21.82,32.36-32.34,3.94-3.75,3.26-5.94-.27-9.37-12.37-12-24.52-24.25-36.61-36.54-2.87-2.92-4.73-4.68-8.57-.72-12.2,12.61-24.85,24.79-37.58,37.39C584,397.38,597.73,410.83,611.18,424.57Zm-89.83-68.68c12.54,1.05,24.27,7.08,33.86,15.28,6.5,5.56,9.66,4.21,14.83-1.33,10.83-11.6,22.48-22.44,34-33.78-36.92-20.2-83.65-10.07-110.2,17.69C503,356.33,512.28,355.13,521.35,355.89ZM480.1,466.52c-9.86-9.76-20-19.74-30.05-29.78-2.31-2.3-4.1-4.3-6.4.25-6,11.88-15.66,20.41-26.95,27-5.44,3.15-3.74,5.21-.38,8.49,9.89,9.63,19.55,19.49,29.4,29.36Z"/></svg>