<svg xmlns="http://www.w3.org/2000/svg" viewBox="0 0 711.21 711.21"><defs><style>.cls-1{fill:#231f20;}</style></defs><title>Capital Goods 2</title><g id="Layer_2" data-name="Layer 2"><g id="Layer_1-2" data-name="Layer 1"><path class="cls-1" d="M355.3,0C159.88,0,.1,159.62,0,354.87-.1,551.45,159.26,711.19,355.49,711.21c196,0,355.68-159.52,355.72-355.28C711.26,159.56,551.67,0,355.3,0ZM354,666.34C182.62,666.27,44.76,526.65,44.87,353.21,45,183.55,184.68,44.87,355.5,44.87c172.33,0,310.87,138.82,310.84,311.47C666.31,528.19,527.07,666.41,354,666.34Z"/><path class="cls-1" d="M259.42,333.18c-2.59-2.64-4.87-5.27-9.3-3.78-7.39,2.49-15.12,1.69-22.71,1.42-49.17-1.76-84.42-56.5-65.74-102,3.71-9,7.43-9.92,14.42-3.07,10.43,10.22,20.68,20.62,31,30.95,9.07,9.09,18.69,10.21,29.12,2.29,5.79-4.4,5.86-12.25,8.15-18.64,1.78-5-3.48-6.54-6.09-9.05-11-10.59-22.28-20.86-33.37-31.36-6.66-6.3-6-10.07,2.34-13.81,18.71-8.34,37.89-7.15,55.92.66,33.38,14.46,50.28,46.95,45.17,83.36-.63,4.49-1.59,8.66,2.79,12.68,10.26,9.42,20.09,19.33,29.62,29.49,3.94,4.2,6,2.79,9.29-.49,20.31-20.52,40.66-41,61.29-61.19,4.08-4,2.93-6.17-.71-9-23.31-18-48.23-27.5-77.42-14.83-3,1.31-6.58,2.88-8.89-.71-1.9-3-1.24-6.39.94-9.31,1.58-2.12,3.07-4.33,4.81-6.32,21.48-24.63,48.29-39.61,81.13-40.36,25.07-.57,49.26,3.35,67.39,24.54,11.62,13.57,25.13,25.53,37.82,38.17s24.85,25.89,43.91,28.9c2.83.44,5.5,2.21,8.13,3.59,10.25,5.35,12.76,9.92,8.92,20.87-10.84,30.89-32.66,51.73-62.49,63.9-12.69,5.17-18.5,1.62-24.24-11.26a89.12,89.12,0,0,1-5.65-15.8c-2.32-9.92-8.55-16.94-15.56-23.67-2.63-2.53-4.33-3.17-7.24-.24-22,22.23-44.24,44.32-67.31,67.38,4.49,4,8.4,7.09,11.9,10.62q50.14,50.51,100.12,101.19c15.25,15.53,14.81,37.57-.53,52.12-14.87,14.12-36.4,13.17-52.39-2.76C417.51,491.41,381.23,455,343.14,416.81c-2.08,3-3.63,6.09-5.94,8.42-33.72,33.86-67.61,67.55-101.31,101.43-11.31,11.37-24.36,15.66-39.78,10.73-27.23-8.71-33.75-41.1-13-62.48C219,438,254.69,401,290.14,364.34,281.24,355.31,270.3,344.27,259.42,333.18Zm-61.9,194.37c9.1,4.2,17.45,2.08,24.88-4.22,2.27-1.92,4.3-4.14,6.41-6.25Q339.63,406.26,450.59,295.57c5.7-5.67,6.69-8.75.12-14.24a177.17,177.17,0,0,1-21.09-21.08c-5.21-6.09-8.33-5.39-13.74,0q-101.37,102-203.17,203.51c-7.51,7.51-15.06,15-22.5,22.54-5.05,5.14-8.33,11.1-7.82,18.68C182.84,515.58,188,523.16,197.52,527.55ZM504.3,513.84c4.75-9.63,2.59-18.92-4.93-26.43-35.91-35.86-72-71.52-107.89-107.44-3.68-3.68-5.51-2.83-8.59.39-8.5,8.85-17.17,17.55-26.09,26-3.53,3.34-3.35,5.25.06,8.64q54,53.64,107.75,107.59c4.44,4.44,9.86,6.5,16.61,7.18C491.14,528.32,499.6,523.35,504.3,513.84ZM252.65,230.28c4.75,4.58,6.61,8.69,3.29,14.57a8.32,8.32,0,0,0-1.18,2.71c-2.77,21.33-18.21,28.35-36.32,32.87-5.28,1.32-8.12-1.05-11.2-4.18-11.57-11.79-23.16-23.57-34.93-35.55-9.66,17.35-1.46,46.89,18.13,63.37,23.73,19.95,53.29,23.67,80.83,3.33,24.21-17.88,32.5-48.49,20.43-76-10.11-23.08-40.1-46.93-74-36.85C229.65,206.86,240.83,218.91,252.65,230.28ZM519.22,338.12c19.44-10.95,35.12-25.78,45.35-45.8,6.47-12.66,5.65-14.35-7.49-19.27-4.62-1.72-9.42-3-14-4.74-3.68-1.41-7.13-3.37-10.74-4.95-4.94-2.17-7-10.65-12.83-8.58-4.8,1.7-8.16,7.44-12.15,11.41-8,7.94-16,15.84-23.84,23.87-1.54,1.58-5.27,3.36-1.79,6.08,12.44,9.71,14,24.86,19.69,38,1.52,3.54,2.14,9,11.17,6.53A33,33,0,0,0,519.22,338.12Zm-52.68-57c3.43,3.51,5.44,4.37,9.3.3,10.47-11.07,21.31-21.82,32.35-32.33,3.95-3.76,3.27-6-.27-9.37-12.37-12-24.51-24.25-36.6-36.55-2.87-2.91-4.74-4.68-8.58-.71-12.19,12.6-24.84,24.78-37.58,37.38C439.34,253.94,453.09,267.38,466.54,281.12ZM376.7,212.44c12.55,1.05,24.27,7.08,33.87,15.29,6.5,5.55,9.65,4.2,14.82-1.34,10.84-11.6,22.48-22.44,34-33.78-36.91-20.2-83.65-10.07-110.2,17.7C358.38,212.88,367.64,211.69,376.7,212.44ZM335.45,323.08c-9.85-9.76-20-19.75-30.05-29.79-2.31-2.3-4.09-4.3-6.4.25-6,11.88-15.65,20.42-26.95,27-5.43,3.15-3.74,5.22-.37,8.49,9.89,9.63,19.54,19.49,29.39,29.37Z"/></g></g></svg>