<svg id="Layer_1" data-name="Layer 1" xmlns="http://www.w3.org/2000/svg" viewBox="0 0 1024 1024"><defs><style>.cls-1{fill:#fff;stroke:#939598;stroke-miterlimit:10;stroke-width:0.25px;}</style></defs><title>Industry Icons</title><path class="cls-1" d="M510.26,495c36.6,0,65.89-29.63,65.89-66.69s-29.29-66.7-65.89-66.7-65.89,29.64-65.89,66.7S473.68,495,510.26,495ZM401.2,540.26c28.54,0,51.24-23,51.24-51.87s-22.7-51.87-51.24-51.87S350,459.48,350,488.39,372.65,540.26,401.2,540.26Zm219.6,0c28.54,0,51.24-23,51.24-51.87s-22.7-51.87-51.24-51.87-51.25,23-51.25,51.87S592.25,540.26,620.8,540.26ZM664,684.46c4.4,0,7.32-3,7.32-7.42V595.86c0-24.48-19.75-44.49-43.92-44.49H604.7c-1.47,0-4.4.75-5.13,2.24a14.28,14.28,0,0,0-1.47,5.91V677c0,4.46,2.93,7.42,7.32,7.42Zm-248.87,0c4.39,0,7.32-3,7.32-7.42V559.52a5.75,5.75,0,0,0-1.47-5.91c-.73-1.49-2.93-2.24-5.13-2.24H393.13c-24.15,0-43.9,20-43.9,44.49V677c0,4.46,2.9,7.42,7.32,7.42Zm168.35,0c4.4,0,7.33-3,7.33-7.42V564.73c0-31.13-24.15-57.8-52.7-57.8H482.44c-28.55,0-52.7,26.67-52.7,57.8V677c0,4.46,2.93,7.42,7.31,7.42Z"/><path class="cls-1" d="M510.33,167.45c-195.43,0-355.2,159.62-355.3,354.87-.1,196.58,159.26,356.32,355.49,356.34,195.94,0,355.67-159.51,355.72-355.28C866.28,327,706.7,167.41,510.33,167.45Zm-1.26,666.34C337.65,833.72,199.78,694.1,199.9,520.67,200,351,339.71,212.32,510.53,212.32c172.32,0,310.87,138.83,310.84,311.47C821.34,695.64,682.1,833.86,509.07,833.79Z"/></svg>