<svg id="Layer_1" data-name="Layer 1" xmlns="http://www.w3.org/2000/svg" viewBox="0 0 1024 1024"><defs><style>.cls-1,.cls-2{fill:#fff;stroke:#939598;stroke-miterlimit:10;}.cls-1{stroke-width:0.5px;}</style></defs><title>Industry Icons</title><path class="cls-1" d="M534.41,160.7C339,160.75,179.2,320.33,179.1,515.57,179,712.15,338.37,871.9,534.59,871.91c195.95,0,355.68-159.51,355.72-355.28C890.36,320.26,730.77,160.66,534.41,160.7Zm-1.26,666.35C361.72,827,223.86,687.35,224,513.92c.12-169.67,139.82-308.34,310.64-308.35,172.32,0,310.87,138.83,310.84,311.47C845.41,688.9,706.17,827.12,533.15,827.05Z"/><path class="cls-2" d="M706.46,425.39c0,20.33.1,40.67-.14,61a11.41,11.41,0,0,1-3,7.26q-104.67,105-209.58,209.73c-14.44,14.44-33,14.53-47.32.2q-56.07-56-112.07-112.08c-14.17-14.2-14.21-32.86-.11-47q105-105,210.09-209.93a11.36,11.36,0,0,1,7.27-3c40.17-.19,80.33-.16,120.5-.12,20.94,0,34.33,13.45,34.38,34.42C706.49,385.72,706.46,405.56,706.46,425.39Zm-112-6.49c0,13.85,10.37,24.5,24,24.55,13.91.06,24.6-10.27,24.67-23.84.07-14.19-10.27-24.78-24.21-24.79S594.5,405.23,594.46,418.9Z"/></svg>