<svg id="Layer_1" data-name="Layer 1" xmlns="http://www.w3.org/2000/svg" viewBox="0 0 1024 1024"><defs><style>.cls-1{fill:#fff;stroke:#939598;stroke-miterlimit:10;stroke-width:0.25px;}</style></defs><title>Industry Icons</title><path class="cls-1" d="M487.26,170.2c-195.42,0-355.2,159.63-355.3,354.87-.1,196.58,159.26,356.33,355.49,356.34,196,0,355.67-159.51,355.72-355.28C843.21,329.76,683.63,170.16,487.26,170.2ZM486,836.54c-171.42-.07-309.28-139.69-309.17-313.12.11-169.67,139.81-308.35,310.63-308.35,172.32,0,310.87,138.83,310.84,311.47C798.27,698.39,659,836.61,486,836.54Z"/><path class="cls-1" d="M403.28,416.33h92.86a11.7,11.7,0,0,1,12.13,11.18c.21,2.52.14,5.08.13,7.62,0,17.7.69,35.45-.27,53.1C506,528,486.89,557.77,452.44,577.65a89.22,89.22,0,0,1-26.34,10c-2.14.45-2.65,1.43-2.64,3.45.07,15.48-.14,31,.09,46.43.44,30.64,26.43,55,57,52.49,22.44-1.81,37.29-14.66,45.71-35.21,2.76-6.75,3.66-13.87,3.78-21.14.75-45.65,31.82-83.26,76.53-92.44a92.58,92.58,0,0,1,17.36-1.66c17.91-.2,35.83-.09,53.74-.07,12.27,0,21,9,21.06,21.44a20.6,20.6,0,0,1-21,21c-17.17.07-34.34,0-51.52,0a53.56,53.56,0,0,0-53.19,48c-.92,8.73-.82,17.64-2.57,26.19a96.29,96.29,0,0,1-85.19,76.51c-38.44,3.73-75.92-17.63-93.26-53.09a101.85,101.85,0,0,1-10.54-45.7c0-13.78-.06-27.56.06-41.34,0-2.55-.7-3.57-3.28-4.28-43.77-12-70.31-40.49-80-84.69a86.09,86.09,0,0,1-1.72-17.35c-.21-18.65-.05-37.31-.09-56,0-5.34,2.16-9.52,6.71-12.16a13,13,0,0,1,6.3-1.56C340.74,416.3,372,416.33,403.28,416.33Zm-.71,100.12c-4.34,16-8.55,31.49-12.76,47l.57.25C407,539.35,423.61,515,440.61,490.05h-33.9c4.34-16,8.57-31.58,12.79-47.15l-.56-.25-50.23,73.8Z"/><path class="cls-1" d="M377.7,370.25c0,10.59-.08,21.18.06,31.77,0,2.6-.89,3.24-3.29,3.22-10.8-.09-21.61-.11-32.41,0-2.74,0-3.36-1-3.35-3.54.08-21.08,0-42.15.06-63.23,0-11.51,8.37-19.9,19.5-19.79,10.9.11,19.39,8.86,19.42,20.09C377.73,349.28,377.7,359.76,377.7,370.25Z"/><path class="cls-1" d="M426.35,369c0-9.64.42-19.31-.1-28.92-.74-13.77,9.84-21.34,18.53-21.45,11.35-.13,20.37,8.32,20.51,20.49.26,21.08,0,42.17.12,63.26,0,2.33-1,2.84-3.07,2.83-10.81-.06-21.62-.08-32.43,0-2.37,0-3.13-.87-3.12-3.17.08-11,0-22,0-33.05Z"/></svg>