<svg id="Layer_1" data-name="Layer 1" xmlns="http://www.w3.org/2000/svg" viewBox="0 0 1024 1024"><defs><style>.cls-1{fill:#231f20;}</style></defs><title>Industry Icons</title><path class="cls-1" d="M464.93,388.19H618.42c8.14,0,10.39,2.23,10.4,10.37q0,88.72,0,177.45c0,8.7-2.17,10.85-10.95,10.85h-307c-8.07,0-10.42-2.28-10.43-10.46,0-21.35.12-42.71.11-64.06q0-56.46-.09-112.92a20.18,20.18,0,0,1,.69-6.37c1.42-4.13,4.84-4.91,8.89-4.91Q387.5,388.25,464.93,388.19Zm87.45,15.74a28.09,28.09,0,0,0-2.92-.32q-85,0-170-.07c-2.48,0-3.35.7-3.78,3.24-5,29.19-27,51.15-56.35,56.24-2.59.45-3.58,1.36-3.55,4.12q.21,20.26,0,40.54c0,2.77.63,3.81,3.66,4.39,26.46,5,44.4,20.29,53.47,45.71,1.57,4.4,2.39,9.07,3.53,13.46H552.16a8.74,8.74,0,0,0,.45-1.31c4.82-32.94,30.92-54.84,57.71-58.18,3.17-.4,3-2.3,3-4.53,0-13.21,0-26.41,0-39.62a33.64,33.64,0,0,0-.32-3.42C575.93,458.65,555.91,430.89,552.38,403.93ZM359.74,571.14c.14-19.41-24.93-44.32-43.5-43.25v43.57c14.05,0,27.7,0,41.35,0A14.1,14.1,0,0,0,359.74,571.14Zm252.81.13V527.62c-24.29,2-43.72,26.12-43.63,43.65ZM316.3,404.07v43.47c21.32-1.84,43.46-24.09,43.43-43.47Zm252.32,0c2.94,22.57,24.19,43.47,43.66,43.21V404.08Z"/><path class="cls-1" d="M644,602.28V430.57a34.25,34.25,0,0,1,.13-5.07,7.7,7.7,0,0,1,15.31.36,28.8,28.8,0,0,1,0,3.22q0,88.47,0,177c0,9.65-2,11.72-11.49,11.72h-306a23.64,23.64,0,0,1-4.13-.14,7.61,7.61,0,0,1-6.47-8.2,7.49,7.49,0,0,1,7.17-7.07c1.37-.13,2.76-.05,4.14-.05H644Z"/><path class="cls-1" d="M675,633v-7q0-82.24,0-164.48c0-.92,0-1.85,0-2.77.1-6,3-9.43,7.82-9.28,4.6.14,7.36,3.52,7.36,9.23q0,77.87,0,155.73,0,12,0,24c0,7.78-2.22,9.91-10.24,9.91h-188c-40.24,0-80.48-.15-120.71.14-6.59,0-11.14-6.23-8.29-10.69a14,14,0,0,1,5.86-4.5c1.54-.71,3.62-.29,5.46-.29H675Z"/><path class="cls-1" d="M464.17,552.34a65,65,0,1,1,65-65A64.9,64.9,0,0,1,464.17,552.34Zm.09-15.44a49.47,49.47,0,1,0-49.62-49.65A49.19,49.19,0,0,0,464.26,536.9Z"/><path class="cls-1" d="M468.26,516.31v7.58h-6.74V516.4c-8.75-.68-15.15-4.13-19.61-8.84l5.47-7.58a24.74,24.74,0,0,0,14.14,7.49V491.23c-8.67-2.19-17.84-5.38-17.84-16.33,0-8.58,7-15.4,17.84-16.32v-7.75h6.74v7.92a27.6,27.6,0,0,1,16.91,7.57l-5.64,7.32a21.89,21.89,0,0,0-11.27-5.89v14.48c8.75,2.35,18.17,5.64,18.17,16.91C486.43,507.73,480.88,515.13,468.26,516.31Zm-6.74-35.85V467.33c-4.8.5-7.74,3.11-7.74,6.9C453.78,477.51,457.06,479.2,461.52,480.46Zm14.9,19.61c0-3.87-3.45-5.64-8.16-7.07v14.47C474.06,506.63,476.42,503.27,476.42,500.07Z"/><path class="cls-1" d="M495,162.71c-195.43,0-355.2,159.63-355.3,354.87C139.61,714.16,299,873.91,495.2,873.92c195.94,0,355.67-159.51,355.72-355.28C851,322.27,691.38,162.67,495,162.71Zm-1.26,666.35C322.33,829,184.46,689.36,184.58,515.93c.11-169.67,139.81-308.34,310.63-308.35,172.32,0,310.87,138.83,310.84,311.47C806,690.91,666.78,829.13,493.75,829.06Z"/></svg>