<svg id="Layer_1" data-name="Layer 1" xmlns="http://www.w3.org/2000/svg" viewBox="0 0 1024 1024"><defs><style>.cls-1{fill:#fff;stroke:#939598;stroke-miterlimit:10;stroke-width:0.25px;}</style></defs><title>Industry Icons</title><path class="cls-1" d="M513.71,667.5H353.06c-15.57,0-26.12-10.25-26.12-25.6q0-97.2,0-194.4c0-13.72,10.95-24.42,25-24.42q161.63,0,323.25,0c15.66,0,26.12,10.34,26.12,25.61q0,97,0,194c0,14.29-10.75,24.79-25.36,24.8Q594.82,667.56,513.71,667.5ZM614,545.28c-.41-54.42-45.38-98.21-100.42-97.79S414,492,414.27,545.66c.31,54.09,45.67,97.92,100.81,97.4C569.58,642.55,614.35,598.26,614,545.28Z"/><path class="cls-1" d="M600.26,417.54h-25C567.57,386,540.76,369,514.6,368.86c-28.49-.18-54.71,18.32-61.82,48.66H428c1.08-35.31,39.38-70.56,79.33-73.08C553.53,341.53,593.06,372.46,600.26,417.54Z"/><path class="cls-1" d="M536.31,609.91H492.18v-43H448.13V523.8H492V480.65h44v43h44.06v43.11H536.31Z"/><path class="cls-1" d="M513.81,178.55c-195.43,0-355.21,159.62-355.31,354.87C158.4,730,317.77,889.74,514,889.76c196,0,355.68-159.52,355.72-355.28C869.76,338.1,710.17,178.51,513.81,178.55Zm-1.26,666.34c-171.43-.07-309.29-139.69-309.18-313.13C203.48,362.09,343.19,223.42,514,223.42c172.32,0,310.87,138.82,310.83,311.46C824.81,706.74,685.57,845,512.55,844.89Z"/></svg>