<svg id="Layer_1" data-name="Layer 1" xmlns="http://www.w3.org/2000/svg" viewBox="0 0 1024 1024"><defs><style>.cls-1,.cls-2{fill:#fff;stroke:#808285;stroke-miterlimit:10;}.cls-1{stroke-width:0.25px;}</style></defs><title>Industry Icons</title><path class="cls-1" d="M489.46,135.62c-195.43,0-355.21,159.62-355.31,354.87-.1,196.58,159.27,356.32,355.49,356.34,196,0,355.68-159.52,355.72-355.28C845.41,295.17,685.82,135.58,489.46,135.62ZM488.2,802C316.77,801.89,178.91,662.27,179,488.83c.12-169.67,139.82-308.34,310.64-308.34C662,180.49,800.53,319.31,800.5,492,800.46,663.81,661.22,802,488.2,802Z"/><path class="cls-2" d="M291,585.84c4.36-25.47,20.74-43,38.29-60.4C390.76,464.55,451.71,403.08,513,341.92c34.2-34.15,80.88-41.89,122-19.78,29.58,15.89,47,40.79,52,74.18a19.12,19.12,0,0,0,1.53,4V421.5c-1.75,7.08-3.15,14.26-5.32,21.21a97,97,0,0,1-24.67,40.13q-89.66,89.63-179.26,179.29c-1,1-2.15,2-3.54,3.25-5.27-5.8-10.37-11.41-15.91-17.49,1.4-1.49,3.46-3.8,5.64-6Q553.25,554.12,641,466.34c21.38-21.41,28.22-47.4,20.3-76.12-7.86-28.48-27.14-47-56.14-54-27.16-6.58-51.77-.17-71.52,19.39q-102,101-203,203c-16,16.09-19.71,35.87-11.45,57,8.36,21.35,25.39,32.09,47.74,33.15A48.73,48.73,0,0,0,404.44,634q86.9-86.76,173.65-173.66c11.9-11.93,12-28.76.77-40.25-11.68-12-28.09-12.38-40.87-.08-18,17.35-35.5,35.29-53.2,53q-47.48,47.47-95,95c-1.85,1.85-3.82,3.6-5.92,5.56L366,555.45c2.89-2.11,6-3.83,8.46-6.26q73.19-73,146.25-146.09c14.82-14.75,32.87-19.13,52.75-13.43,20.09,5.76,32.41,19.68,36.49,40.11,3.8,19-2.29,35.24-16,48.88q-47,46.74-93.73,93.67c-26.67,26.64-52.91,53.72-80.14,79.77-39.77,38-106.74,21.19-124.65-30.86-1.8-5.21-3-10.63-4.45-16Z"/></svg>