<svg id="Layer_1" data-name="Layer 1" xmlns="http://www.w3.org/2000/svg" viewBox="0 0 1024 1024"><defs><style>.cls-1,.cls-2{fill:#fff;stroke:#939598;stroke-miterlimit:10;}.cls-2{stroke-width:0.25px;}</style></defs><title>Industry Icons</title><path class="cls-1" d="M650.54,677.52c20.84-7.82,30.85-21.59,26.07-38.67-2.69-9.64-8.3-18.49-13-27.52a77.85,77.85,0,0,0-7.75-11.71c-5.88-7.64-15.66-8-20.87.12-7,10.83-14,21.92-19,33.74-7.88,18.66,2,36.92,21.52,42.67a22.84,22.84,0,0,1,3,1.37Z"/><path class="cls-1" d="M435.09,359.72v31.9H401.41c-14.88,0-18.58,3.7-18.58,18.58q0,54,0,108c0,12.58,3.83,16.58,16,16.59q66.88,0,133.78,0c11.65,0,15.5-3.61,15.54-15.35q.22-56.09,0-112.18c0-11-4.67-15.53-15.68-15.64-11.86-.11-23.73,0-36.12,0V359.71c11,0,22,.21,33,0,17.53-.43,29.47-11.3,29.91-26.86.46-16.38-10.68-29.08-27.23-29.23q-66.47-.58-132.94,0c-15.08.12-26.71,12-27.76,26.74-1,13.84,9.39,26.59,24.52,28.62,9,1.2,18.22.62,27.35.79C427,359.78,430.85,359.72,435.09,359.72Z"/><path class="cls-1" d="M574.92,418.16v89.68c3.12,0,5.8,0,8.49,0,11.76.08,14.43,2.78,14.48,14.86.05,13,0,26,0,39.06.05,13.61,4.16,17.62,17.94,17.62,18.84,0,37.68.07,56.52,0,10.32-.05,15-4.43,14.8-14.51-.32-21.56,1.28-43.46-1.92-64.61-7.26-47.88-49.46-82.05-98-82.08C583.39,418.15,579.53,418.16,574.92,418.16Z"/><path class="cls-1" d="M356.73,507.76V418.28c-9.06,0-18.11-.69-27,.24-6.26.65-10.15,5.33-10.16,12.14q-.06,32.34,0,64.69c0,7.83,5.19,11.62,12.05,12.24C339.79,508.32,348.06,507.76,356.73,507.76Z"/><path class="cls-2" d="M503.12,134.8c-195.43,0-355.21,159.63-355.3,354.87C147.72,686.25,307.08,846,503.31,846,699.25,846,859,686.5,859,490.73,859.07,294.36,699.48,134.76,503.12,134.8Zm-1.26,666.34C330.43,801.07,192.57,661.45,192.69,488c.11-169.67,139.81-308.35,310.63-308.35,172.32,0,310.87,138.83,310.84,311.47C814.12,663,674.88,801.21,501.86,801.14Z"/></svg>