<svg id="Layer_1" data-name="Layer 1" xmlns="http://www.w3.org/2000/svg" viewBox="0 0 1024 1024"><defs><style>.cls-1{fill:#231f20;}</style></defs><title>Industry Icons</title><path class="cls-1" d="M495.73,581.41c-.51-1.91-1.46-3.81-1.47-5.72-.11-18,0-36-.16-54a11.77,11.77,0,0,0-2.09-6.25c-3.78-5.33-7.8-10.51-12-15.53a15.08,15.08,0,0,1-3.79-10.71c.27-13.49.07-27,.13-40.5,0-2.19-.31-3.61-2.63-4.79a13.56,13.56,0,0,1-7-16.21,13.93,13.93,0,0,1,14.62-10,14.08,14.08,0,0,1,12.59,11.06c1.31,6.78-2.1,13.06-8.63,15.89l-2.71,1.18c0,15.19,0,30.33.08,45.46a7.37,7.37,0,0,0,1.67,3.94c4.6,6.1,9.44,12,13.91,18.19a11.54,11.54,0,0,1,2.19,6.23q.24,28,0,56c0,1.91-1,3.82-1.47,5.73Zm-7.55-149.87a8.12,8.12,0,0,0-7.84-7.88,8,8,0,0,0-8.09,8,8,8,0,1,0,15.93-.12Z"/><path class="cls-1" d="M481,581.41c-.53-1.9-1.49-3.8-1.5-5.7-.12-15.42,0-30.84-.16-46.26a10.18,10.18,0,0,0-2-5.84c-8.48-10.67-17.21-21.16-25.78-31.77-1.36-1.68-2.46-2.22-4.74-1.46A13.71,13.71,0,0,1,430,483.85a14.05,14.05,0,0,1,20.38-18.23,13.64,13.64,0,0,1,4.76,17c-1.14,2.43-.37,3.64,1,5.29,9.2,11.16,18.4,22.31,27.43,33.6a10.12,10.12,0,0,1,2.11,5.82q.24,24.36,0,48.71c0,1.79-.93,3.57-1.43,5.35ZM442.26,485a7.56,7.56,0,0,0,7.91-7.53,7.89,7.89,0,0,0-7.74-8.24,8.21,8.21,0,0,0-8.06,7.65A7.93,7.93,0,0,0,442.26,485Z"/><path class="cls-1" d="M511.29,581.41c-.53-1.89-1.52-3.78-1.53-5.67q-.15-45,0-90c0-2.67-.39-4.28-3.25-5.53-6.11-2.68-9-9.61-7.32-16.12a14,14,0,0,1,27.25.52,13.49,13.49,0,0,1-7.12,15.44c-3,1.38-3.37,3.13-3.37,6q.14,44.6,0,89.17c0,2.07-.89,4.14-1.36,6.21ZM512.75,460a7.88,7.88,0,0,0-7.94,7.65,8.27,8.27,0,0,0,8,8.13,8,8,0,0,0,7.82-8.22A7.57,7.57,0,0,0,512.75,460Z"/><path class="cls-1" d="M526,581.41c-.52-1.76-1.47-3.52-1.5-5.28-.16-8.86-.19-17.73,0-26.58a8.64,8.64,0,0,1,2.21-5.24c5.49-5.88,11.32-11.44,16.83-17.29a8.23,8.23,0,0,0,2.18-4.89c.23-7.9.2-15.81,0-23.71a5.05,5.05,0,0,0-2.11-3.67c-6.82-3.8-10-9.89-8.22-16.46a14.19,14.19,0,0,1,13.83-10.63c6.41.1,12.33,4.93,13.5,11,1.4,7.26-1.79,13-9.08,16.37l-1.51.72c0,9.05-.11,18.27.06,27.5a8.38,8.38,0,0,1-2.8,6.78c-5.48,5.31-10.88,10.71-16,16.33a10.12,10.12,0,0,0-2.5,6c-.29,7.76,0,15.54-.18,23.3,0,1.93-.93,3.84-1.43,5.76Zm31.35-99.58a7.58,7.58,0,0,0-7.59-7.87,7.86,7.86,0,0,0-8.21,7.78,8.12,8.12,0,0,0,8.12,8A7.86,7.86,0,0,0,557.38,481.83Z"/><path class="cls-1" d="M695.21,655.47H312.28c0-9.65,0-19.14.06-28.64a4,4,0,0,1,1.22-2.11c10.07-11.85,20.27-23.59,30.13-35.61,1.4-1.7,1.62-4.75,1.62-7.18q.12-87.18.12-174.35a43.7,43.7,0,0,1,1.31-10.81c1.48-5.77,7.9-9.5,15.71-9.5q55.73-.06,111.45,0c55.36,0,110.72.23,166.08-.16,13.3-.09,19.91,5.82,19.91,20q0,87.18-.09,174.35a15.52,15.52,0,0,0,4,10.9Q679,610,693.92,627.93a5.6,5.6,0,0,1,1.24,3.27C695.26,639.09,695.21,647,695.21,655.47ZM502.63,399.64H381.79c-11.17,0-16.31,4.92-16.32,16q-.08,70.9,0,141.82c0,11.06,4.74,16,15.67,16q121.38.08,242.77,0c11,0,15.57-4.4,15.59-15.27q.15-71.73,0-143.46c0-10.45-5-15-15.44-15Zm-57.4,228.92H560.45c-5.54-6.66-8.59-13.1-18.72-12.75-25.51.88-51.1.93-76.61,0C454.92,615.4,450.26,620.42,445.23,628.56Z"/><path class="cls-1" d="M503.45,165.68c-195.43,0-355.2,159.62-355.3,354.87-.1,196.58,159.26,356.32,355.49,356.34,195.94,0,355.67-159.52,355.72-355.28C859.4,325.23,699.81,165.64,503.45,165.68ZM502.19,832C330.77,832,192.9,692.33,193,518.89c.11-169.67,139.81-308.34,310.63-308.34C676,210.55,814.52,349.37,814.49,522,814.46,693.87,675.21,832.09,502.19,832Z"/></svg>