<svg id="Layer_1" data-name="Layer 1" xmlns="http://www.w3.org/2000/svg" viewBox="0 0 1024 1024"><defs><style>.cls-1,.cls-2{fill:#fff;stroke:#939598;stroke-miterlimit:10;}.cls-1{stroke-width:0.25px;}.cls-2{stroke-width:0.5px;}</style></defs><title>Industry Icons</title><path class="cls-1" d="M512.16,163.37C316.73,163.41,157,323,156.86,518.23c-.1,196.58,159.26,356.33,355.49,356.35,195.94,0,355.67-159.52,355.72-355.29C868.11,322.92,708.52,163.32,512.16,163.37ZM510.9,829.71C339.47,829.64,201.61,690,201.73,516.58c.11-169.67,139.81-308.34,310.63-308.35,172.32,0,310.87,138.83,310.84,311.47C823.16,691.56,683.92,829.78,510.9,829.71Z"/><path class="cls-2" d="M708,526.61c-1.11-5.6-1-11.42-4.36-16.55q-8.83-13.37-17.74-26.71c-10.61-15.86-20.83-32-31.93-47.53-7.92-11.08-18.92-16.6-32.68-16.53-12.85.08-25.71.11-38.56,0-5.54-.06-7-1.59-7.18-7.07-.14-5,0-9.93,0-14.89a38.73,38.73,0,0,0-39-39.07q-38.76,0-77.5,0-53.07,0-106.13,0c-17.92,0-33.14,13.16-35.4,30.25-.17,1.24.31,2.57-.49,3.71V535.77c.58.65.29,1.45.39,2.19.62,4.77.82,9.57,3.75,13.83,5.87,8.53,13.51,14.39,23.64,16.9,6.14,1.52,6.92,2.52,6.95,8.94.05,8.78,0,17.56,0,26.34a38.69,38.69,0,0,0,39,39.08c13.06,0,11.07.31,16.28,9.82,9.41,17.18,24.19,26.5,43.65,26.68,21.42.19,37.25-10,46.47-29.45,2.53-5.34,5.82-7.23,11.5-7.12,13.61.27,27.23.12,40.85.08,13,0,11.27,0,16.45,10.1,12.58,24.58,45.27,34.11,69,20a51.56,51.56,0,0,0,21.87-24.72c1.61-3.83,4.21-5.5,8.25-5.4,2.67.07,5.34,0,8,0,13,0,33.61-11.48,34.48-30.27.06-1.22-.35-2.56.45-3.71ZM356.34,543.39a25.42,25.42,0,0,1-6-.49c-5.43-1.36-8.85-6.29-8.86-12.74q-.07-28.81,0-57.64,0-36.64,0-73.29c0-10.22,4.43-14.65,14.65-14.65q44.67,0,89.33,0H534c10.95,0,15.16,4.25,15.16,15.3q0,63.75,0,127.5a41.17,41.17,0,0,1-.2,5.33,11.8,11.8,0,0,1-10.49,10.5,37.27,37.27,0,0,1-5,.2Q444.9,543.42,356.34,543.39Zm94.88,110A24.09,24.09,0,0,1,427,629.17c0-14.07,10.63-24.7,24.58-24.66a24.42,24.42,0,0,1-.31,48.84Zm158.83,0a24.42,24.42,0,1,1,24.57-24.28A24.1,24.1,0,0,1,610.05,653.35Zm73.41-49.74c0,8.3-4.87,12.44-13.18,13.2s-13.3-1.2-17.33-9.95c-8.44-18.31-24.44-27.28-44.44-26.54-20.83.78-35.65,11.73-43.54,31.2-1.65,4.05-3.76,5.31-7.9,5.27q-26.54-.25-53.07,0c-3.91,0-5.88-1.34-7.34-5-13-32.87-52.41-42.11-78.54-18.42a44.41,44.41,0,0,0-12.18,18.71c-1.18,3.44-3.13,4.93-6.75,4.68-3.17-.21-6.37.06-9.54-.11a11.79,11.79,0,0,1-11.49-11.56c-.2-10.94,0-21.89-.09-32.84,0-4,2.47-4.41,5.58-4.4q34.19,0,68.35,0h8.78q36.84,0,73.69,0c23.33,0,39-15.75,39.08-39.09q0-38.19,0-76.37c0-6.34.38-6.71,6.7-6.71,13.49,0,27,.12,40.47-.06a14.05,14.05,0,0,1,12.81,6.78q23.58,35.44,47.23,70.84a15.83,15.83,0,0,1,2.74,9C683.49,556,683.57,579.81,683.46,603.61Z"/><path class="cls-2" d="M655,515.46c-10.18-15.07-20.73-29.92-30.1-45.48-5.59-9.28-12.49-13-23.12-12.26-11.59.76-16,4.64-16,16.42q0,16.22,0,32.43h0c0,11.82-.12,23.65.05,35.48.12,8.46,4.92,13.39,13.32,13.49q23.26.27,46.54,0c8.38-.1,13-5,13.32-13.51.14-4.32-.09-8.66.09-13A22,22,0,0,0,655,515.46ZM646.54,541c0,1.78-1.77,2.38-3.41,2.38q-20.6,0-41.2,0c-3.3,0-3.94-2.13-3.93-4.85q0-15.84,0-31.67h0c0-10.31,0-20.61,0-30.91,0-5.11.71-5.54,5.69-5.87,4.55-.31,7.52,1.24,10.07,5.18,9.81,15.16,19.78,30.22,30.05,45.08C648.4,526.92,646.57,534,646.54,541Z"/></svg>